<svg width="760" height="309" fill="none" xmlns="http://www.w3.org/2000/svg"><path d="M289.15 118.75c-28.69 0-41.86 12.07-41.86 39.67v4.23c0 26.18 11.45 38.88 38.41 38.88 8.62 0 17.25-1.57 23.36-6.43v3.14c0 14.74-6.43 19.6-21.48 19.6h-9.01c-5.15.09-7.49 1-10.6 6.09l-.02-.01c-25.85 40.91-70.73 65.91-119.64 65.91-78.04 0-141.53-63.49-141.53-141.53C6.78 70.26 70.27 6.77 148.31 6.77c54.82 0 104.68 31.75 128.02 81.15h6.5C259.05 35.02 206.34.88 148.31.88 67.02.88.88 67.01.88 148.31c0 81.3 66.14 147.43 147.43 147.43 47.81 0 91.93-22.92 119.43-60.96h21.09c27.75 0 42.02-10.5 42.02-37.31v-40.45c0-26.66-13.64-38.27-41.7-38.27zm20.06 46.57c0 14.74-5.17 19.28-20.07 19.28-16.78 0-20.07-5.8-20.07-22.89v-2.67c0-16.93 2.98-23.05 20.07-23.05 16.78 0 20.07 5.96 20.07 23.2v6.13zM86.74 89.12v76.98c0 28.53 13.17 40.45 41.86 40.45 29.79 0 42.96-11.6 42.96-40.29v-7.37c0-26.97-12.23-40.14-38.88-40.14-8.47 0-17.72 1.72-23.99 6.58V85.66l-21.95 3.46zM129.38 136c15.05 0 20.38 5.96 20.38 23.67v6.58c0 17.25-5.33 23.2-20.7 23.2-15.36 0-20.7-5.96-20.7-23.36v-8.94c.01-15.82 5.35-21.15 21.02-21.15zm107.09 2.98l3.61-17.56h-31.04V97.43l-21.79 3.29v71.65c0 24.77 9.72 32.14 36.22 32.14h11.6l3.61-17.4h-13.64c-12.07 0-15.99-2.98-15.99-16.15v-31.98h27.42zM391.36 124.94c-21.45 0-31.43 10.59-31.43 33.34v61.86h6.77v-31.77c4.89 6.36 14.02 10.09 25.05 10.09 21.35 0 30.86-10.28 30.86-33.34v-7.04c-.01-22.92-9.64-33.14-31.25-33.14zm24.29 40.19c0 19.51-6.48 26.76-23.91 26.76-16.5 0-24.86-8.04-24.86-23.91v-9.7c0-19.01 7.09-26.76 24.48-26.76 17.48 0 24.29 7.45 24.29 26.57v7.04zm291.61-39.05h-18.33l-1.52 6.57h19.85c18.16 0 24.29 4.83 24.29 19.15v6.93c-4.5-4.51-12.47-6.79-23.72-6.79-17.95 0-26.68 7.61-26.68 23.26v1.14c0 14.67 8.59 22.12 25.54 22.12h4.56c17.95 0 27.06-7.44 27.06-22.12v-24.53c0-18.27-9-25.73-31.05-25.73zm24.29 51.22c0 10.5-5.74 14.59-20.49 14.59h-2.85c-14.22 0-20.3-4.65-20.3-15.54v-1.14c0-11.83 5.78-16.87 19.34-16.87h1.14c16.23 0 23.15 4.88 23.15 16.3v2.66h.01zm20.73-78.41v99.57h6.77V98.89h-6.77zm-152.4 33.77l1.52-6.57h-30.26v-18.8l-6.95 1.24v64.39c0 18.34 6.87 25.16 25.35 25.16h9.99l1.26-6.57h-11.26c-13.93 0-18.4-4.42-18.4-18.2v-40.65h28.75zm62.63 37.22c0 16.95-5.3 22.39-21.82 22.39-16.03 0-21.44-5.65-21.44-22.39v-43.8h-6.95v43.8c0 20.84 7.96 28.96 28.39 28.96 20.3 0 28.58-8.39 28.58-28.96v-43.8h-6.77v43.8h.01zm-203.07-43.8H441.1l-1.51 6.57h19.85c18.02 0 24.1 4.83 24.1 19.15v6.93c-4.5-4.51-12.46-6.79-23.72-6.79-17.95 0-26.68 7.61-26.68 23.26v1.14c0 14.67 8.66 22.12 25.73 22.12h4.57c17.83 0 26.87-7.44 26.87-22.12v-24.53c0-18.27-8.94-25.73-30.87-25.73zm24.1 51.22c0 10.64-5.5 14.59-20.3 14.59h-2.85c-14.36 0-20.49-4.65-20.49-15.54v-1.14c0-11.83 5.78-16.87 19.34-16.87h1.14c16.23 0 23.15 4.88 23.15 16.3v2.66h.01zm25.98-12.17v-6.09c0-19.48 6.66-26.38 25.43-26.38h15.86l1.51-6.57h-17.38c-22.4 0-32.39 10.16-32.39 32.96v6.09c0 22.79 9.99 32.96 32.39 32.96H551l1.52-6.57h-17.57c-18.3-.02-25.43-7.42-25.43-26.4zM363.82 273.92c0 3.19.2 5.83.59 7.9.39 2.07 1.09 3.72 2.1 4.96 1.01 1.23 2.39 2.1 4.16 2.6s4.05.76 6.85.76c2.41 0 4.73-.01 6.97-.04 2.24-.03 4.65-.07 7.22-.13l-.92 4.28a462.796 462.796 0 01-13.28.17c-3.7 0-6.75-.42-9.16-1.26-2.41-.84-4.3-2.09-5.67-3.74-1.37-1.65-2.34-3.71-2.9-6.17s-.84-5.32-.84-8.57v-5.29c0-3.53.35-6.54 1.05-9.03.7-2.49 1.79-4.52 3.28-6.09 1.48-1.57 3.37-2.71 5.67-3.44s5.01-1.09 8.15-1.09c6.27 0 10.79 1.36 13.57 4.07 2.77 2.72 4.16 7.01 4.16 12.89v2.02c0 1.18-.07 2.1-.21 2.77-.14.67-.38 1.19-.71 1.55-.34.37-.8.6-1.39.71-.59.11-1.3.17-2.14.17h-26.55zm13.19-20.08c-2.35 0-4.37.22-6.05.67-1.68.45-3.05 1.26-4.12 2.44-1.06 1.18-1.83 2.8-2.31 4.87-.48 2.07-.71 4.73-.71 7.98h26.46v-2.86c0-2.52-.25-4.62-.76-6.3-.5-1.68-1.29-3.02-2.35-4.03-1.06-1.01-2.44-1.72-4.12-2.14-1.68-.42-3.69-.63-6.04-.63zM405.23 294.25v-30.41c0-5.09 1.39-8.72 4.16-10.88 2.77-2.16 6.65-3.23 11.63-3.23 3.64 0 6.58.59 8.82 1.76 2.24 1.18 3.81 2.74 4.7 4.7.95-1.96 2.58-3.53 4.87-4.7 2.3-1.18 5.18-1.76 8.65-1.76 2.46 0 4.67.24 6.64.71 1.96.48 3.61 1.26 4.96 2.35 1.34 1.09 2.38 2.53 3.11 4.33.73 1.79 1.09 4.03 1.09 6.72v30.41h-4.87v-29.99c0-3.81-.85-6.47-2.56-7.98-1.71-1.51-4.49-2.27-8.36-2.27-3.81 0-6.59.73-8.36 2.18-1.76 1.46-2.65 4.03-2.65 7.73v30.32h-4.96v-29.99c0-3.81-.88-6.47-2.65-7.98-1.76-1.51-4.58-2.27-8.44-2.27-4.09 0-6.93.83-8.53 2.48-1.6 1.65-2.39 4.27-2.39 7.85v29.9h-4.86v.02zM494.94 249.73c2.97 0 5.61.28 7.94.84 2.32.56 4.28 1.57 5.88 3.02 1.6 1.46 2.81 3.46 3.65 6.01.84 2.55 1.26 5.84 1.26 9.87v6.22c0 3.81-.37 6.97-1.09 9.49-.73 2.52-1.86 4.57-3.4 6.13-1.54 1.57-3.49 2.68-5.84 3.32-2.35.64-5.12.97-8.32.97-3.31 0-6.17-.49-8.61-1.47-2.44-.98-4.3-2.45-5.59-4.41v19.24h-4.87v-39.48c0-3.86.42-7.07 1.26-9.62.84-2.55 2.06-4.56 3.65-6.05 1.6-1.48 3.57-2.53 5.92-3.15 2.36-.62 5.08-.93 8.16-.93zm.08 41.58c2.74 0 5.01-.26 6.8-.8 1.79-.53 3.19-1.41 4.2-2.65 1.01-1.23 1.71-2.84 2.1-4.83.39-1.99.59-4.44.59-7.35v-6.22c0-3.25-.28-5.89-.84-7.94-.56-2.04-1.4-3.61-2.52-4.7-1.12-1.09-2.56-1.83-4.33-2.23-1.76-.39-3.82-.59-6.17-.59-2.47 0-4.58.2-6.34.59-1.76.39-3.21 1.15-4.33 2.27s-1.96 2.69-2.52 4.7c-.56 2.02-.84 4.65-.84 7.9v7.98c0 2.74.34 5.01 1.01 6.8.67 1.79 1.62 3.21 2.86 4.24 1.23 1.04 2.73 1.76 4.49 2.18 1.77.44 3.72.65 5.84.65zM524.09 294.25v-28.48c0-2.91.32-5.32.97-7.22.64-1.9 1.61-3.43 2.9-4.58 1.29-1.15 2.88-1.94 4.79-2.39 1.9-.45 4.12-.67 6.64-.67h5.29c1.68 0 3 .03 3.95.08l-.92 4.37c-.73-.06-1.89-.1-3.49-.13-1.6-.03-3.12-.04-4.58-.04-2.13 0-3.88.18-5.25.55-1.37.36-2.45.97-3.23 1.81-.78.84-1.34 1.97-1.68 3.4-.34 1.43-.5 3.23-.5 5.42v27.89h-4.89v-.01zM558.53 273.92c0 3.19.2 5.83.59 7.9.39 2.07 1.09 3.72 2.1 4.96 1.01 1.23 2.39 2.1 4.16 2.6s4.05.76 6.85.76c2.41 0 4.73-.01 6.97-.04 2.24-.03 4.65-.07 7.22-.13l-.92 4.28a462.796 462.796 0 01-13.28.17c-3.7 0-6.75-.42-9.16-1.26-2.41-.84-4.3-2.09-5.67-3.74-1.37-1.65-2.34-3.71-2.9-6.17s-.84-5.32-.84-8.57v-5.29c0-3.53.35-6.54 1.05-9.03.7-2.49 1.79-4.52 3.28-6.09 1.48-1.57 3.37-2.71 5.67-3.44s5.01-1.09 8.15-1.09c6.27 0 10.79 1.36 13.57 4.07 2.77 2.72 4.16 7.01 4.16 12.89v2.02c0 1.18-.07 2.1-.21 2.77-.14.67-.38 1.19-.71 1.55-.34.37-.8.6-1.39.71-.59.11-1.3.17-2.14.17h-26.55zm13.19-20.08c-2.35 0-4.37.22-6.05.67-1.68.45-3.05 1.26-4.12 2.44-1.06 1.18-1.83 2.8-2.31 4.87-.48 2.07-.71 4.73-.71 7.98h26.46v-2.86c0-2.52-.25-4.62-.76-6.3-.5-1.68-1.29-3.02-2.35-4.03-1.06-1.01-2.44-1.72-4.12-2.14-1.68-.42-3.69-.63-6.04-.63zM619.93 270.22c2.35.22 4.3.66 5.84 1.3s2.79 1.44 3.74 2.39c.95.95 1.62 2.07 2.02 3.36.39 1.29.59 2.69.59 4.2v.76c0 1.96-.27 3.7-.8 5.21a8.648 8.648 0 01-2.65 3.82c-1.23 1.04-2.87 1.82-4.91 2.35s-4.58.8-7.6.8h-9.2c-1.43 0-2.86-.01-4.28-.04-1.43-.03-2.93-.07-4.49-.13l.92-4.28c2.52.11 5.14.17 7.85.17h9.37c2.18 0 3.99-.13 5.42-.38 1.43-.25 2.56-.7 3.4-1.34.84-.64 1.41-1.48 1.72-2.52.31-1.04.46-2.34.46-3.91 0-2.35-.59-4.07-1.76-5.17-1.18-1.09-3.33-1.78-6.47-2.06l-8.99-.84c-4.15-.45-7.13-1.58-8.95-3.4-1.82-1.82-2.73-4.35-2.73-7.6v-.92c0-3.75 1.25-6.54 3.74-8.36 2.49-1.82 6.43-2.73 11.8-2.73h8.15c2.8 0 5.82.06 9.07.17l-.92 4.28c-2.86-.11-5.71-.17-8.57-.17h-7.98c-3.92 0-6.66.52-8.23 1.55-1.57 1.04-2.35 2.81-2.35 5.33 0 1.06.1 2 .29 2.81.2.81.57 1.53 1.13 2.14.56.62 1.37 1.12 2.44 1.51 1.06.39 2.44.67 4.12.84l8.81.86zM675.45 289.46c0 1.9-.35 3.18-1.05 3.82-.7.64-2.09.97-4.16.97h-13.78c-5.77 0-9.91-1.01-12.43-3.02-2.52-2.02-3.78-5.29-3.78-9.83v-1.18c0-4.7 1.27-8.12 3.82-10.25 2.55-2.13 6.68-3.19 12.39-3.19 3.86 0 6.94.36 9.24 1.09 2.3.73 3.98 1.74 5.04 3.02v-5.04c0-2.02-.2-3.71-.59-5.08-.39-1.37-1.09-2.46-2.1-3.28-1.01-.81-2.41-1.4-4.2-1.76-1.79-.36-4.06-.55-6.8-.55-2.07 0-4.26.01-6.55.04-2.3.03-4.37.1-6.22.21l.92-4.37c1.57-.06 3.42-.1 5.54-.13 2.13-.03 4.23-.04 6.3-.04 3.36 0 6.2.27 8.53.8 2.32.53 4.21 1.37 5.67 2.52s2.52 2.63 3.19 4.45c.67 1.82 1.01 4.05 1.01 6.68v24.12h.01zm-30.49-8.15c0 1.51.18 2.8.55 3.86.36 1.06.98 1.96 1.85 2.69.87.73 2.04 1.26 3.53 1.6 1.48.34 3.35.5 5.59.5h14.28v-10.08c0-1.79-.29-3.26-.88-4.41a6.664 6.664 0 00-2.56-2.73c-1.12-.67-2.51-1.15-4.16-1.43-1.65-.28-3.54-.42-5.67-.42h-1.09c-4.15 0-7.08.69-8.82 2.06-1.74 1.37-2.6 3.79-2.6 7.27v1.09h-.02zM706.7 270.22c2.35.22 4.3.66 5.84 1.3s2.79 1.44 3.74 2.39c.95.95 1.62 2.07 2.02 3.36.39 1.29.59 2.69.59 4.2v.76c0 1.96-.27 3.7-.8 5.21a8.648 8.648 0 01-2.65 3.82c-1.23 1.04-2.87 1.82-4.91 2.35s-4.58.8-7.6.8h-9.2c-1.43 0-2.86-.01-4.28-.04-1.43-.03-2.93-.07-4.49-.13l.92-4.28c2.52.11 5.14.17 7.85.17h9.37c2.18 0 3.99-.13 5.42-.38 1.43-.25 2.56-.7 3.4-1.34.84-.64 1.41-1.48 1.72-2.52.31-1.04.46-2.34.46-3.91 0-2.35-.59-4.07-1.76-5.17-1.18-1.09-3.33-1.78-6.47-2.06l-8.99-.84c-4.15-.45-7.13-1.58-8.95-3.4-1.82-1.82-2.73-4.35-2.73-7.6v-.92c0-3.75 1.25-6.54 3.74-8.36 2.49-1.82 6.43-2.73 11.8-2.73h8.15c2.8 0 5.82.06 9.07.17l-.92 4.28c-2.86-.11-5.71-.17-8.57-.17h-7.98c-3.92 0-6.66.52-8.23 1.55-1.57 1.04-2.35 2.81-2.35 5.33 0 1.06.1 2 .29 2.81.2.81.57 1.53 1.13 2.14.56.62 1.37 1.12 2.44 1.51 1.06.39 2.44.67 4.12.84l8.81.86z" fill="#001E62"/></svg>